<svg id="visual" viewBox="0 0 1200 438" width="1200" height="438" xmlns="http://www.w3.org/2000/svg" xmlns:xlink="http://www.w3.org/1999/xlink" version="1.1"><rect x="0" y="0" width="1200" height="438" fill="#0f89c7"></rect><path d="M0 287L40 288.2C80 289.3 160 291.7 240 306.8C320 322 400 350 480 364.3C560 378.7 640 379.3 720 376.5C800 373.7 880 367.3 960 354.5C1040 341.7 1120 322.3 1160 312.7L1200 303L1200 439L1160 439C1120 439 1040 439 960 439C880 439 800 439 720 439C640 439 560 439 480 439C400 439 320 439 240 439C160 439 80 439 40 439L0 439Z" fill="#46dcd5" stroke-linecap="round" stroke-linejoin="miter"></path></svg>